<?xml version="1.0" encoding="UTF-8"?>
<!DOCTYPE svg PUBLIC "-//W3C//DTD SVG 1.1//EN" "http://www.w3.org/Graphics/SVG/1.1/DTD/svg11.dtd">
<svg width="182mm" height="89mm" viewBox="0 0 18200 8900" version="1.1" baseProfile="tiny" xmlns="http://www.w3.org/2000/svg" stroke-width="28.222" stroke-linejoin="round" xml:space="preserve">
 <path fill="rgb(255,255,255)" stroke="none" d="M 9076,8925 L 0,8925 0,0 18151,0 18151,8925 9076,8925 Z"/>
 <path fill="none" stroke="rgb(179,179,179)" stroke-linejoin="round" d="M 9316,7702 L 1275,7702 1275,2331 17358,2331 17358,7702 9316,7702 Z"/>
 <path fill="none" stroke="rgb(179,179,179)" stroke-linejoin="round" d="M 17358,7701 L 1275,7701"/>
 <path fill="none" stroke="rgb(179,179,179)" stroke-linejoin="round" d="M 17358,7163 L 1275,7163"/>
 <path fill="none" stroke="rgb(179,179,179)" stroke-linejoin="round" d="M 17358,6626 L 1275,6626"/>
 <path fill="none" stroke="rgb(179,179,179)" stroke-linejoin="round" d="M 17358,6089 L 1275,6089"/>
 <path fill="none" stroke="rgb(179,179,179)" stroke-linejoin="round" d="M 17358,5552 L 1275,5552"/>
 <path fill="none" stroke="rgb(179,179,179)" stroke-linejoin="round" d="M 17358,5015 L 1275,5015"/>
 <path fill="none" stroke="rgb(179,179,179)" stroke-linejoin="round" d="M 17358,4477 L 1275,4477"/>
 <path fill="none" stroke="rgb(179,179,179)" stroke-linejoin="round" d="M 17358,3941 L 1275,3941"/>
 <path fill="none" stroke="rgb(179,179,179)" stroke-linejoin="round" d="M 17358,3404 L 1275,3404"/>
 <path fill="none" stroke="rgb(179,179,179)" stroke-linejoin="round" d="M 17358,2867 L 1275,2867"/>
 <path fill="none" stroke="rgb(179,179,179)" stroke-linejoin="round" d="M 17358,2330 L 1275,2330"/>
 <path fill="none" stroke="rgb(179,179,179)" stroke-linejoin="round" d="M 1275,7851 L 1275,7701"/>
 <path fill="none" stroke="rgb(179,179,179)" stroke-linejoin="round" d="M 1275,7851 L 1275,7701"/>
 <path fill="none" stroke="rgb(179,179,179)" stroke-linejoin="round" d="M 2347,7851 L 2347,7701"/>
 <path fill="none" stroke="rgb(179,179,179)" stroke-linejoin="round" d="M 2347,7851 L 2347,7701"/>
 <path fill="none" stroke="rgb(179,179,179)" stroke-linejoin="round" d="M 3419,7851 L 3419,7701"/>
 <path fill="none" stroke="rgb(179,179,179)" stroke-linejoin="round" d="M 3419,7851 L 3419,7701"/>
 <path fill="none" stroke="rgb(179,179,179)" stroke-linejoin="round" d="M 4491,7851 L 4491,7701"/>
 <path fill="none" stroke="rgb(179,179,179)" stroke-linejoin="round" d="M 4491,7851 L 4491,7701"/>
 <path fill="none" stroke="rgb(179,179,179)" stroke-linejoin="round" d="M 5564,7851 L 5564,7701"/>
 <path fill="none" stroke="rgb(179,179,179)" stroke-linejoin="round" d="M 5564,7851 L 5564,7701"/>
 <path fill="none" stroke="rgb(179,179,179)" stroke-linejoin="round" d="M 6636,7851 L 6636,7701"/>
 <path fill="none" stroke="rgb(179,179,179)" stroke-linejoin="round" d="M 6636,7851 L 6636,7701"/>
 <path fill="none" stroke="rgb(179,179,179)" stroke-linejoin="round" d="M 7708,7851 L 7708,7701"/>
 <path fill="none" stroke="rgb(179,179,179)" stroke-linejoin="round" d="M 7708,7851 L 7708,7701"/>
 <path fill="none" stroke="rgb(179,179,179)" stroke-linejoin="round" d="M 8780,7851 L 8780,7701"/>
 <path fill="none" stroke="rgb(179,179,179)" stroke-linejoin="round" d="M 8780,7851 L 8780,7701"/>
 <path fill="none" stroke="rgb(179,179,179)" stroke-linejoin="round" d="M 9852,7851 L 9852,7701"/>
 <path fill="none" stroke="rgb(179,179,179)" stroke-linejoin="round" d="M 9852,7851 L 9852,7701"/>
 <path fill="none" stroke="rgb(179,179,179)" stroke-linejoin="round" d="M 10924,7851 L 10924,7701"/>
 <path fill="none" stroke="rgb(179,179,179)" stroke-linejoin="round" d="M 10924,7851 L 10924,7701"/>
 <path fill="none" stroke="rgb(179,179,179)" stroke-linejoin="round" d="M 11996,7851 L 11996,7701"/>
 <path fill="none" stroke="rgb(179,179,179)" stroke-linejoin="round" d="M 11996,7851 L 11996,7701"/>
 <path fill="none" stroke="rgb(179,179,179)" stroke-linejoin="round" d="M 13068,7851 L 13068,7701"/>
 <path fill="none" stroke="rgb(179,179,179)" stroke-linejoin="round" d="M 13068,7851 L 13068,7701"/>
 <path fill="none" stroke="rgb(179,179,179)" stroke-linejoin="round" d="M 14141,7851 L 14141,7701"/>
 <path fill="none" stroke="rgb(179,179,179)" stroke-linejoin="round" d="M 14141,7851 L 14141,7701"/>
 <path fill="none" stroke="rgb(179,179,179)" stroke-linejoin="round" d="M 15213,7851 L 15213,7701"/>
 <path fill="none" stroke="rgb(179,179,179)" stroke-linejoin="round" d="M 15213,7851 L 15213,7701"/>
 <path fill="none" stroke="rgb(179,179,179)" stroke-linejoin="round" d="M 16285,7851 L 16285,7701"/>
 <path fill="none" stroke="rgb(179,179,179)" stroke-linejoin="round" d="M 16285,7851 L 16285,7701"/>
 <path fill="none" stroke="rgb(179,179,179)" stroke-linejoin="round" d="M 17358,7851 L 17358,7701"/>
 <path fill="none" stroke="rgb(179,179,179)" stroke-linejoin="round" d="M 17358,7851 L 17358,7701"/>
 <path fill="none" stroke="rgb(179,179,179)" stroke-linejoin="round" d="M 1275,7701 L 17358,7701"/>
 <path fill="none" stroke="rgb(179,179,179)" stroke-linejoin="round" d="M 1125,7701 L 1275,7701"/>
 <path fill="none" stroke="rgb(179,179,179)" stroke-linejoin="round" d="M 1125,7701 L 1275,7701"/>
 <path fill="none" stroke="rgb(179,179,179)" stroke-linejoin="round" d="M 1125,7163 L 1275,7163"/>
 <path fill="none" stroke="rgb(179,179,179)" stroke-linejoin="round" d="M 1125,7163 L 1275,7163"/>
 <path fill="none" stroke="rgb(179,179,179)" stroke-linejoin="round" d="M 1125,6626 L 1275,6626"/>
 <path fill="none" stroke="rgb(179,179,179)" stroke-linejoin="round" d="M 1125,6626 L 1275,6626"/>
 <path fill="none" stroke="rgb(179,179,179)" stroke-linejoin="round" d="M 1125,6089 L 1275,6089"/>
 <path fill="none" stroke="rgb(179,179,179)" stroke-linejoin="round" d="M 1125,6089 L 1275,6089"/>
 <path fill="none" stroke="rgb(179,179,179)" stroke-linejoin="round" d="M 1125,5552 L 1275,5552"/>
 <path fill="none" stroke="rgb(179,179,179)" stroke-linejoin="round" d="M 1125,5552 L 1275,5552"/>
 <path fill="none" stroke="rgb(179,179,179)" stroke-linejoin="round" d="M 1125,5015 L 1275,5015"/>
 <path fill="none" stroke="rgb(179,179,179)" stroke-linejoin="round" d="M 1125,5015 L 1275,5015"/>
 <path fill="none" stroke="rgb(179,179,179)" stroke-linejoin="round" d="M 1125,4477 L 1275,4477"/>
 <path fill="none" stroke="rgb(179,179,179)" stroke-linejoin="round" d="M 1125,4477 L 1275,4477"/>
 <path fill="none" stroke="rgb(179,179,179)" stroke-linejoin="round" d="M 1125,3941 L 1275,3941"/>
 <path fill="none" stroke="rgb(179,179,179)" stroke-linejoin="round" d="M 1125,3941 L 1275,3941"/>
 <path fill="none" stroke="rgb(179,179,179)" stroke-linejoin="round" d="M 1125,3404 L 1275,3404"/>
 <path fill="none" stroke="rgb(179,179,179)" stroke-linejoin="round" d="M 1125,3404 L 1275,3404"/>
 <path fill="none" stroke="rgb(179,179,179)" stroke-linejoin="round" d="M 1125,2867 L 1275,2867"/>
 <path fill="none" stroke="rgb(179,179,179)" stroke-linejoin="round" d="M 1125,2867 L 1275,2867"/>
 <path fill="none" stroke="rgb(179,179,179)" stroke-linejoin="round" d="M 1125,2330 L 1275,2330"/>
 <path fill="none" stroke="rgb(179,179,179)" stroke-linejoin="round" d="M 1125,2330 L 1275,2330"/>
 <path fill="none" stroke="rgb(179,179,179)" stroke-linejoin="round" d="M 1275,7701 L 1275,2330"/>
 <path fill="rgb(0,69,134)" stroke="none" d="M 16553,7701 L 17089,7701 17089,2652 16553,2652 16553,7701 Z"/>
 <path fill="rgb(0,69,134)" stroke="none" d="M 15481,7701 L 16017,7701 16017,4156 15481,4156 15481,7701 Z"/>
 <path fill="rgb(0,69,134)" stroke="none" d="M 14409,7701 L 14945,7701 14945,4800 14409,4800 14409,7701 Z"/>
 <path fill="rgb(0,69,134)" stroke="none" d="M 13337,7701 L 13873,7701 13873,5659 13337,5659 13337,7701 Z"/>
 <path fill="rgb(0,69,134)" stroke="none" d="M 12264,7701 L 12800,7701 12800,5767 12264,5767 12264,7701 Z"/>
 <path fill="rgb(0,69,134)" stroke="none" d="M 11192,7701 L 11728,7701 11728,5874 11192,5874 11192,7701 Z"/>
 <path fill="rgb(0,69,134)" stroke="none" d="M 10120,7701 L 10656,7701 10656,6089 10120,6089 10120,7701 Z"/>
 <path fill="rgb(0,69,134)" stroke="none" d="M 9048,7701 L 9584,7701 9584,6089 9048,6089 9048,7701 Z"/>
 <path fill="rgb(0,69,134)" stroke="none" d="M 7976,7701 L 8512,7701 8512,6196 7976,6196 7976,7701 Z"/>
 <path fill="rgb(0,69,134)" stroke="none" d="M 6904,7701 L 7440,7701 7440,6411 6904,6411 6904,7701 Z"/>
 <path fill="rgb(0,69,134)" stroke="none" d="M 5832,7701 L 6368,7701 6368,6841 5832,6841 5832,7701 Z"/>
 <path fill="rgb(0,69,134)" stroke="none" d="M 4759,7701 L 5296,7701 5296,6948 4759,6948 4759,7701 Z"/>
 <path fill="rgb(0,69,134)" stroke="none" d="M 3687,7701 L 4223,7701 4223,7163 3687,7163 3687,7701 Z"/>
 <path fill="rgb(0,69,134)" stroke="none" d="M 2615,7701 L 3151,7701 3151,7163 2615,7163 2615,7701 Z"/>
 <path fill="rgb(0,69,134)" stroke="none" d="M 1543,7701 L 2079,7701 2079,7163 1543,7163 1543,7701 Z"/>
 <text class="TextShape"><tspan class="TextParagraph" font-family="Liberation Sans, sans-serif" font-size="353px" font-weight="400"><tspan class="TextPosition" x="1057" y="8667"><tspan fill="rgb(0,0,0)" stroke="none">adventure</tspan></tspan></tspan></text>
 <text class="TextShape"><tspan class="TextParagraph" font-family="Liberation Sans, sans-serif" font-size="353px" font-weight="400"><tspan class="TextPosition" x="2221" y="8269"><tspan fill="rgb(0,0,0)" stroke="none">romance</tspan></tspan></tspan></text>
 <text class="TextShape"><tspan class="TextParagraph" font-family="Liberation Sans, sans-serif" font-size="353px" font-weight="400"><tspan class="TextPosition" x="3373" y="8667"><tspan fill="rgb(0,0,0)" stroke="none">reviews</tspan></tspan></tspan></text>
 <text class="TextShape"><tspan class="TextParagraph" font-family="Liberation Sans, sans-serif" font-size="353px" font-weight="400"><tspan class="TextPosition" x="4550" y="8269"><tspan fill="rgb(0,0,0)" stroke="none">humor</tspan></tspan></tspan></text>
 <text class="TextShape"><tspan class="TextParagraph" font-family="Liberation Sans, sans-serif" font-size="353px" font-weight="400"><tspan class="TextPosition" x="5544" y="8667"><tspan fill="rgb(0,0,0)" stroke="none">learned</tspan></tspan></tspan></text>
 <text class="TextShape"><tspan class="TextParagraph" font-family="Liberation Sans, sans-serif" font-size="353px" font-weight="400"><tspan class="TextPosition" x="6576" y="8269"><tspan fill="rgb(0,0,0)" stroke="none">editorial</tspan></tspan></tspan></text>
 <text class="TextShape"><tspan class="TextParagraph" font-family="Liberation Sans, sans-serif" font-size="353px" font-weight="400"><tspan class="TextPosition" x="7701" y="8667"><tspan fill="rgb(0,0,0)" stroke="none">religion</tspan></tspan></tspan></text>
 <text class="TextShape"><tspan class="TextParagraph" font-family="Liberation Sans, sans-serif" font-size="353px" font-weight="400"><tspan class="TextPosition" x="9039" y="8269"><tspan fill="rgb(0,0,0)" stroke="none">lore</tspan></tspan></tspan></text>
 <text class="TextShape"><tspan class="TextParagraph" font-family="Liberation Sans, sans-serif" font-size="353px" font-weight="400"><tspan class="TextPosition" x="9489" y="8667"><tspan fill="rgb(0,0,0)" stroke="none">government</tspan></tspan></tspan></text>
 <text class="TextShape"><tspan class="TextParagraph" font-family="Liberation Sans, sans-serif" font-size="353px" font-weight="400"><tspan class="TextPosition" x="10865" y="8269"><tspan fill="rgb(0,0,0)" stroke="none">hobbies</tspan></tspan></tspan></text>
 <text class="TextShape"><tspan class="TextParagraph" font-family="Liberation Sans, sans-serif" font-size="353px" font-weight="400"><tspan class="TextPosition" x="11421" y="8667"><tspan fill="rgb(0,0,0)" stroke="none">science fiction</tspan></tspan></tspan></text>
 <text class="TextShape"><tspan class="TextParagraph" font-family="Liberation Sans, sans-serif" font-size="353px" font-weight="400"><tspan class="TextPosition" x="12984" y="8269"><tspan fill="rgb(0,0,0)" stroke="none">mystery</tspan></tspan></tspan></text>
 <text class="TextShape"><tspan class="TextParagraph" font-family="Liberation Sans, sans-serif" font-size="353px" font-weight="400"><tspan class="TextPosition" x="14281" y="8667"><tspan fill="rgb(0,0,0)" stroke="none">news</tspan></tspan></tspan></text>
 <text class="TextShape"><tspan class="TextParagraph" font-family="Liberation Sans, sans-serif" font-size="353px" font-weight="400"><tspan class="TextPosition" x="15287" y="8269"><tspan fill="rgb(0,0,0)" stroke="none">fiction</tspan></tspan></tspan></text>
 <text class="TextShape"><tspan class="TextParagraph" font-family="Liberation Sans, sans-serif" font-size="353px" font-weight="400"><tspan class="TextPosition" x="15843" y="8667"><tspan fill="rgb(0,0,0)" stroke="none">belles lettres</tspan></tspan></tspan></text>
 <text class="TextShape"><tspan class="TextParagraph" font-family="Liberation Sans, sans-serif" font-size="353px" font-weight="400"><tspan class="TextPosition" x="840" y="7822"><tspan fill="rgb(0,0,0)" stroke="none">0</tspan></tspan></tspan></text>
 <text class="TextShape"><tspan class="TextParagraph" font-family="Liberation Sans, sans-serif" font-size="353px" font-weight="400"><tspan class="TextPosition" x="364" y="7284"><tspan fill="rgb(0,0,0)" stroke="none">0.05</tspan></tspan></tspan></text>
 <text class="TextShape"><tspan class="TextParagraph" font-family="Liberation Sans, sans-serif" font-size="353px" font-weight="400"><tspan class="TextPosition" x="549" y="6747"><tspan fill="rgb(0,0,0)" stroke="none">0.1</tspan></tspan></tspan></text>
 <text class="TextShape"><tspan class="TextParagraph" font-family="Liberation Sans, sans-serif" font-size="353px" font-weight="400"><tspan class="TextPosition" x="364" y="6210"><tspan fill="rgb(0,0,0)" stroke="none">0.15</tspan></tspan></tspan></text>
 <text class="TextShape"><tspan class="TextParagraph" font-family="Liberation Sans, sans-serif" font-size="353px" font-weight="400"><tspan class="TextPosition" x="549" y="5673"><tspan fill="rgb(0,0,0)" stroke="none">0.2</tspan></tspan></tspan></text>
 <text class="TextShape"><tspan class="TextParagraph" font-family="Liberation Sans, sans-serif" font-size="353px" font-weight="400"><tspan class="TextPosition" x="364" y="5136"><tspan fill="rgb(0,0,0)" stroke="none">0.25</tspan></tspan></tspan></text>
 <text class="TextShape"><tspan class="TextParagraph" font-family="Liberation Sans, sans-serif" font-size="353px" font-weight="400"><tspan class="TextPosition" x="549" y="4598"><tspan fill="rgb(0,0,0)" stroke="none">0.3</tspan></tspan></tspan></text>
 <text class="TextShape"><tspan class="TextParagraph" font-family="Liberation Sans, sans-serif" font-size="353px" font-weight="400"><tspan class="TextPosition" x="364" y="4061"><tspan fill="rgb(0,0,0)" stroke="none">0.35</tspan></tspan></tspan></text>
 <text class="TextShape"><tspan class="TextParagraph" font-family="Liberation Sans, sans-serif" font-size="353px" font-weight="400"><tspan class="TextPosition" x="549" y="3524"><tspan fill="rgb(0,0,0)" stroke="none">0.4</tspan></tspan></tspan></text>
 <text class="TextShape"><tspan class="TextParagraph" font-family="Liberation Sans, sans-serif" font-size="353px" font-weight="400"><tspan class="TextPosition" x="364" y="2987"><tspan fill="rgb(0,0,0)" stroke="none">0.45</tspan></tspan></tspan></text>
 <text class="TextShape"><tspan class="TextParagraph" font-family="Liberation Sans, sans-serif" font-size="353px" font-weight="400"><tspan class="TextPosition" x="549" y="2450"><tspan fill="rgb(0,0,0)" stroke="none">0.5</tspan></tspan></tspan></text>
 <text class="TextShape"><tspan class="TextParagraph" font-family="Liberation Sans, sans-serif" font-size="459px" font-weight="400"><tspan class="TextPosition" x="7673" y="849"><tspan fill="rgb(0,0,0)" stroke="none">Brown Corpus</tspan></tspan></tspan></text>
 <text class="TextShape"><tspan class="TextParagraph" font-family="Liberation Sans, sans-serif" font-size="388px" font-weight="400"><tspan class="TextPosition" x="6523" y="1757"><tspan fill="rgb(0,0,0)" stroke="none">Proportions of Hellenic Words</tspan></tspan></tspan></text>
</svg>