<?xml version="1.0" encoding="UTF-8"?>
<!DOCTYPE svg PUBLIC "-//W3C//DTD SVG 1.1//EN" "http://www.w3.org/Graphics/SVG/1.1/DTD/svg11.dtd">
<svg width="203mm" height="127mm" viewBox="0 0 20300 12700" version="1.1" baseProfile="tiny" xmlns="http://www.w3.org/2000/svg" stroke-width="28.222" stroke-linejoin="round" xml:space="preserve">
 <path fill="rgb(255,255,255)" stroke="none" d="M 10160,12700 L 0,12700 0,0 20320,0 20320,12700 10160,12700 Z"/>
 <path fill="none" stroke="rgb(179,179,179)" stroke-linejoin="round" d="M 10113,11401 L 842,11401 842,2559 19384,2559 19384,11401 10113,11401 Z"/>
 <path fill="none" stroke="rgb(179,179,179)" stroke-linejoin="round" d="M 19384,11400 L 842,11400"/>
 <path fill="none" stroke="rgb(179,179,179)" stroke-linejoin="round" d="M 19384,10417 L 842,10417"/>
 <path fill="none" stroke="rgb(179,179,179)" stroke-linejoin="round" d="M 19384,9434 L 842,9434"/>
 <path fill="none" stroke="rgb(179,179,179)" stroke-linejoin="round" d="M 19384,8452 L 842,8452"/>
 <path fill="none" stroke="rgb(179,179,179)" stroke-linejoin="round" d="M 19384,7469 L 842,7469"/>
 <path fill="none" stroke="rgb(179,179,179)" stroke-linejoin="round" d="M 19384,6487 L 842,6487"/>
 <path fill="none" stroke="rgb(179,179,179)" stroke-linejoin="round" d="M 19384,5505 L 842,5505"/>
 <path fill="none" stroke="rgb(179,179,179)" stroke-linejoin="round" d="M 19384,4523 L 842,4523"/>
 <path fill="none" stroke="rgb(179,179,179)" stroke-linejoin="round" d="M 19384,3540 L 842,3540"/>
 <path fill="none" stroke="rgb(179,179,179)" stroke-linejoin="round" d="M 19384,2558 L 842,2558"/>
 <path fill="none" stroke="rgb(179,179,179)" stroke-linejoin="round" d="M 842,11550 L 842,11400"/>
 <path fill="none" stroke="rgb(179,179,179)" stroke-linejoin="round" d="M 842,11550 L 842,11400"/>
 <path fill="none" stroke="rgb(179,179,179)" stroke-linejoin="round" d="M 2078,11550 L 2078,11400"/>
 <path fill="none" stroke="rgb(179,179,179)" stroke-linejoin="round" d="M 2078,11550 L 2078,11400"/>
 <path fill="none" stroke="rgb(179,179,179)" stroke-linejoin="round" d="M 3314,11550 L 3314,11400"/>
 <path fill="none" stroke="rgb(179,179,179)" stroke-linejoin="round" d="M 3314,11550 L 3314,11400"/>
 <path fill="none" stroke="rgb(179,179,179)" stroke-linejoin="round" d="M 4550,11550 L 4550,11400"/>
 <path fill="none" stroke="rgb(179,179,179)" stroke-linejoin="round" d="M 4550,11550 L 4550,11400"/>
 <path fill="none" stroke="rgb(179,179,179)" stroke-linejoin="round" d="M 5786,11550 L 5786,11400"/>
 <path fill="none" stroke="rgb(179,179,179)" stroke-linejoin="round" d="M 5786,11550 L 5786,11400"/>
 <path fill="none" stroke="rgb(179,179,179)" stroke-linejoin="round" d="M 7023,11550 L 7023,11400"/>
 <path fill="none" stroke="rgb(179,179,179)" stroke-linejoin="round" d="M 7023,11550 L 7023,11400"/>
 <path fill="none" stroke="rgb(179,179,179)" stroke-linejoin="round" d="M 8259,11550 L 8259,11400"/>
 <path fill="none" stroke="rgb(179,179,179)" stroke-linejoin="round" d="M 8259,11550 L 8259,11400"/>
 <path fill="none" stroke="rgb(179,179,179)" stroke-linejoin="round" d="M 9495,11550 L 9495,11400"/>
 <path fill="none" stroke="rgb(179,179,179)" stroke-linejoin="round" d="M 9495,11550 L 9495,11400"/>
 <path fill="none" stroke="rgb(179,179,179)" stroke-linejoin="round" d="M 10730,11550 L 10730,11400"/>
 <path fill="none" stroke="rgb(179,179,179)" stroke-linejoin="round" d="M 10730,11550 L 10730,11400"/>
 <path fill="none" stroke="rgb(179,179,179)" stroke-linejoin="round" d="M 11966,11550 L 11966,11400"/>
 <path fill="none" stroke="rgb(179,179,179)" stroke-linejoin="round" d="M 11966,11550 L 11966,11400"/>
 <path fill="none" stroke="rgb(179,179,179)" stroke-linejoin="round" d="M 13203,11550 L 13203,11400"/>
 <path fill="none" stroke="rgb(179,179,179)" stroke-linejoin="round" d="M 13203,11550 L 13203,11400"/>
 <path fill="none" stroke="rgb(179,179,179)" stroke-linejoin="round" d="M 14439,11550 L 14439,11400"/>
 <path fill="none" stroke="rgb(179,179,179)" stroke-linejoin="round" d="M 14439,11550 L 14439,11400"/>
 <path fill="none" stroke="rgb(179,179,179)" stroke-linejoin="round" d="M 15675,11550 L 15675,11400"/>
 <path fill="none" stroke="rgb(179,179,179)" stroke-linejoin="round" d="M 15675,11550 L 15675,11400"/>
 <path fill="none" stroke="rgb(179,179,179)" stroke-linejoin="round" d="M 16911,11550 L 16911,11400"/>
 <path fill="none" stroke="rgb(179,179,179)" stroke-linejoin="round" d="M 16911,11550 L 16911,11400"/>
 <path fill="none" stroke="rgb(179,179,179)" stroke-linejoin="round" d="M 18147,11550 L 18147,11400"/>
 <path fill="none" stroke="rgb(179,179,179)" stroke-linejoin="round" d="M 18147,11550 L 18147,11400"/>
 <path fill="none" stroke="rgb(179,179,179)" stroke-linejoin="round" d="M 19384,11550 L 19384,11400"/>
 <path fill="none" stroke="rgb(179,179,179)" stroke-linejoin="round" d="M 19384,11550 L 19384,11400"/>
 <path fill="none" stroke="rgb(179,179,179)" stroke-linejoin="round" d="M 842,11400 L 19384,11400"/>
 <path fill="none" stroke="rgb(179,179,179)" stroke-linejoin="round" d="M 692,11400 L 842,11400"/>
 <path fill="none" stroke="rgb(179,179,179)" stroke-linejoin="round" d="M 692,11400 L 842,11400"/>
 <path fill="none" stroke="rgb(179,179,179)" stroke-linejoin="round" d="M 692,10417 L 842,10417"/>
 <path fill="none" stroke="rgb(179,179,179)" stroke-linejoin="round" d="M 692,10417 L 842,10417"/>
 <path fill="none" stroke="rgb(179,179,179)" stroke-linejoin="round" d="M 692,9434 L 842,9434"/>
 <path fill="none" stroke="rgb(179,179,179)" stroke-linejoin="round" d="M 692,9434 L 842,9434"/>
 <path fill="none" stroke="rgb(179,179,179)" stroke-linejoin="round" d="M 692,8452 L 842,8452"/>
 <path fill="none" stroke="rgb(179,179,179)" stroke-linejoin="round" d="M 692,8452 L 842,8452"/>
 <path fill="none" stroke="rgb(179,179,179)" stroke-linejoin="round" d="M 692,7469 L 842,7469"/>
 <path fill="none" stroke="rgb(179,179,179)" stroke-linejoin="round" d="M 692,7469 L 842,7469"/>
 <path fill="none" stroke="rgb(179,179,179)" stroke-linejoin="round" d="M 692,6487 L 842,6487"/>
 <path fill="none" stroke="rgb(179,179,179)" stroke-linejoin="round" d="M 692,6487 L 842,6487"/>
 <path fill="none" stroke="rgb(179,179,179)" stroke-linejoin="round" d="M 692,5505 L 842,5505"/>
 <path fill="none" stroke="rgb(179,179,179)" stroke-linejoin="round" d="M 692,5505 L 842,5505"/>
 <path fill="none" stroke="rgb(179,179,179)" stroke-linejoin="round" d="M 692,4523 L 842,4523"/>
 <path fill="none" stroke="rgb(179,179,179)" stroke-linejoin="round" d="M 692,4523 L 842,4523"/>
 <path fill="none" stroke="rgb(179,179,179)" stroke-linejoin="round" d="M 692,3540 L 842,3540"/>
 <path fill="none" stroke="rgb(179,179,179)" stroke-linejoin="round" d="M 692,3540 L 842,3540"/>
 <path fill="none" stroke="rgb(179,179,179)" stroke-linejoin="round" d="M 692,2558 L 842,2558"/>
 <path fill="none" stroke="rgb(179,179,179)" stroke-linejoin="round" d="M 692,2558 L 842,2558"/>
 <path fill="none" stroke="rgb(179,179,179)" stroke-linejoin="round" d="M 842,11400 L 842,2558"/>
 <path fill="rgb(0,69,134)" stroke="none" d="M 18456,11400 L 19074,11400 19074,3235 18456,3235 18456,11400 Z"/>
 <path fill="rgb(0,69,134)" stroke="none" d="M 17220,11400 L 17838,11400 17838,4208 17220,4208 17220,11400 Z"/>
 <path fill="rgb(0,69,134)" stroke="none" d="M 15984,11400 L 16602,11400 16602,5466 15984,5466 15984,11400 Z"/>
 <path fill="rgb(0,69,134)" stroke="none" d="M 14748,11400 L 15366,11400 15366,5874 14748,5874 14748,11400 Z"/>
 <path fill="rgb(0,69,134)" stroke="none" d="M 13512,11400 L 14130,11400 14130,5913 13512,5913 13512,11400 Z"/>
 <path fill="rgb(0,69,134)" stroke="none" d="M 12275,11400 L 12893,11400 12893,6144 12275,6144 12275,11400 Z"/>
 <path fill="rgb(0,69,134)" stroke="none" d="M 11039,11400 L 11657,11400 11657,6173 11039,6173 11039,11400 Z"/>
 <path fill="rgb(0,69,134)" stroke="none" d="M 9804,11400 L 10421,11400 10421,6198 9804,6198 9804,11400 Z"/>
 <path fill="rgb(0,69,134)" stroke="none" d="M 8568,11400 L 9186,11400 9186,6331 8568,6331 8568,11400 Z"/>
 <path fill="rgb(0,69,134)" stroke="none" d="M 7332,11400 L 7950,11400 7950,7405 7332,7405 7332,11400 Z"/>
 <path fill="rgb(0,69,134)" stroke="none" d="M 6095,11400 L 6713,11400 6713,7769 6095,7769 6095,11400 Z"/>
 <path fill="rgb(0,69,134)" stroke="none" d="M 4859,11400 L 5477,11400 5477,8501 4859,8501 4859,11400 Z"/>
 <path fill="rgb(0,69,134)" stroke="none" d="M 3623,11400 L 4241,11400 4241,8702 3623,8702 3623,11400 Z"/>
 <path fill="rgb(0,69,134)" stroke="none" d="M 2387,11400 L 3005,11400 3005,9027 2387,9027 2387,11400 Z"/>
 <path fill="rgb(0,69,134)" stroke="none" d="M 1151,11400 L 1769,11400 1769,9027 1151,9027 1151,11400 Z"/>
 <text class="TextShape"><tspan class="TextParagraph" font-family="Liberation Sans" font-size="353px" font-weight="400"><tspan class="TextPosition" x="706" y="12366"><tspan fill="rgb(0,0,0)" stroke="none">adventure</tspan></tspan></tspan></text>
 <text class="TextShape"><tspan class="TextParagraph" font-family="Liberation Sans" font-size="353px" font-weight="400"><tspan class="TextPosition" x="2034" y="11968"><tspan fill="rgb(0,0,0)" stroke="none">romance</tspan></tspan></tspan></text>
 <text class="TextShape"><tspan class="TextParagraph" font-family="Liberation Sans" font-size="353px" font-weight="400"><tspan class="TextPosition" x="3350" y="12366"><tspan fill="rgb(0,0,0)" stroke="none">reviews</tspan></tspan></tspan></text>
 <text class="TextShape"><tspan class="TextParagraph" font-family="Liberation Sans" font-size="353px" font-weight="400"><tspan class="TextPosition" x="4691" y="11968"><tspan fill="rgb(0,0,0)" stroke="none">humor</tspan></tspan></tspan></text>
 <text class="TextShape"><tspan class="TextParagraph" font-family="Liberation Sans" font-size="353px" font-weight="400"><tspan class="TextPosition" x="5848" y="12366"><tspan fill="rgb(0,0,0)" stroke="none">learned</tspan></tspan></tspan></text>
 <text class="TextShape"><tspan class="TextParagraph" font-family="Liberation Sans" font-size="353px" font-weight="400"><tspan class="TextPosition" x="7045" y="11968"><tspan fill="rgb(0,0,0)" stroke="none">editorial</tspan></tspan></tspan></text>
 <text class="TextShape"><tspan class="TextParagraph" font-family="Liberation Sans" font-size="353px" font-weight="400"><tspan class="TextPosition" x="8334" y="12366"><tspan fill="rgb(0,0,0)" stroke="none">religion</tspan></tspan></tspan></text>
 <text class="TextShape"><tspan class="TextParagraph" font-family="Liberation Sans" font-size="353px" font-weight="400"><tspan class="TextPosition" x="9835" y="11968"><tspan fill="rgb(0,0,0)" stroke="none">lore</tspan></tspan></tspan></text>
 <text class="TextShape"><tspan class="TextParagraph" font-family="Liberation Sans" font-size="353px" font-weight="400"><tspan class="TextPosition" x="10449" y="12366"><tspan fill="rgb(0,0,0)" stroke="none">government</tspan></tspan></tspan></text>
 <text class="TextShape"><tspan class="TextParagraph" font-family="Liberation Sans" font-size="353px" font-weight="400"><tspan class="TextPosition" x="11989" y="11968"><tspan fill="rgb(0,0,0)" stroke="none">hobbies</tspan></tspan></tspan></text>
 <text class="TextShape"><tspan class="TextParagraph" font-family="Liberation Sans" font-size="353px" font-weight="400"><tspan class="TextPosition" x="12710" y="12366"><tspan fill="rgb(0,0,0)" stroke="none">science fiction</tspan></tspan></tspan></text>
 <text class="TextShape"><tspan class="TextParagraph" font-family="Liberation Sans" font-size="353px" font-weight="400"><tspan class="TextPosition" x="14436" y="11968"><tspan fill="rgb(0,0,0)" stroke="none">mystery</tspan></tspan></tspan></text>
 <text class="TextShape"><tspan class="TextParagraph" font-family="Liberation Sans" font-size="353px" font-weight="400"><tspan class="TextPosition" x="15897" y="12366"><tspan fill="rgb(0,0,0)" stroke="none">news</tspan></tspan></tspan></text>
 <text class="TextShape"><tspan class="TextParagraph" font-family="Liberation Sans" font-size="353px" font-weight="400"><tspan class="TextPosition" x="17067" y="11968"><tspan fill="rgb(0,0,0)" stroke="none">fiction</tspan></tspan></tspan></text>
 <text class="TextShape"><tspan class="TextParagraph" font-family="Liberation Sans" font-size="353px" font-weight="400"><tspan class="TextPosition" x="17787" y="12366"><tspan fill="rgb(0,0,0)" stroke="none">belles lettres</tspan></tspan></tspan></text>
 <text class="TextShape"><tspan class="TextParagraph" font-family="Liberation Sans" font-size="353px" font-weight="400"><tspan class="TextPosition" x="407" y="11521"><tspan fill="rgb(0,0,0)" stroke="none">0</tspan></tspan></tspan></text>
 <text class="TextShape"><tspan class="TextParagraph" font-family="Liberation Sans" font-size="353px" font-weight="400"><tspan class="TextPosition" x="407" y="10538"><tspan fill="rgb(0,0,0)" stroke="none">2</tspan></tspan></tspan></text>
 <text class="TextShape"><tspan class="TextParagraph" font-family="Liberation Sans" font-size="353px" font-weight="400"><tspan class="TextPosition" x="407" y="9555"><tspan fill="rgb(0,0,0)" stroke="none">4</tspan></tspan></tspan></text>
 <text class="TextShape"><tspan class="TextParagraph" font-family="Liberation Sans" font-size="353px" font-weight="400"><tspan class="TextPosition" x="407" y="8573"><tspan fill="rgb(0,0,0)" stroke="none">6</tspan></tspan></tspan></text>
 <text class="TextShape"><tspan class="TextParagraph" font-family="Liberation Sans" font-size="353px" font-weight="400"><tspan class="TextPosition" x="407" y="7590"><tspan fill="rgb(0,0,0)" stroke="none">8</tspan></tspan></tspan></text>
 <text class="TextShape"><tspan class="TextParagraph" font-family="Liberation Sans" font-size="353px" font-weight="400"><tspan class="TextPosition" x="222" y="6608"><tspan fill="rgb(0,0,0)" stroke="none">10</tspan></tspan></tspan></text>
 <text class="TextShape"><tspan class="TextParagraph" font-family="Liberation Sans" font-size="353px" font-weight="400"><tspan class="TextPosition" x="222" y="5625"><tspan fill="rgb(0,0,0)" stroke="none">12</tspan></tspan></tspan></text>
 <text class="TextShape"><tspan class="TextParagraph" font-family="Liberation Sans" font-size="353px" font-weight="400"><tspan class="TextPosition" x="222" y="4643"><tspan fill="rgb(0,0,0)" stroke="none">14</tspan></tspan></tspan></text>
 <text class="TextShape"><tspan class="TextParagraph" font-family="Liberation Sans" font-size="353px" font-weight="400"><tspan class="TextPosition" x="222" y="3660"><tspan fill="rgb(0,0,0)" stroke="none">16</tspan></tspan></tspan></text>
 <text class="TextShape"><tspan class="TextParagraph" font-family="Liberation Sans" font-size="353px" font-weight="400"><tspan class="TextPosition" x="222" y="2678"><tspan fill="rgb(0,0,0)" stroke="none">18</tspan></tspan></tspan></text>
 <text class="TextShape"><tspan class="TextParagraph" font-family="Liberation Sans" font-size="459px" font-weight="400"><tspan class="TextPosition" x="8757" y="925"><tspan fill="rgb(0,0,0)" stroke="none">Brown Corpus</tspan></tspan></tspan></text>
 <text class="TextShape"><tspan class="TextParagraph" font-family="Liberation Sans" font-size="388px" font-weight="400"><tspan class="TextPosition" x="7620" y="1909"><tspan fill="rgb(0,0,0)" stroke="none">Proportions of Latinate Words</tspan></tspan></tspan></text>
</svg>