<?xml version="1.0" encoding="UTF-8"?>
<!DOCTYPE svg PUBLIC "-//W3C//DTD SVG 1.1//EN" "http://www.w3.org/Graphics/SVG/1.1/DTD/svg11.dtd">
<svg width="193mm" height="113mm" viewBox="0 0 19300 11300" version="1.1" baseProfile="tiny" xmlns="http://www.w3.org/2000/svg" stroke-width="28.222" stroke-linejoin="round" xml:space="preserve">
 <path fill="rgb(255,255,255)" stroke="none" d="M 9669,11262 L 0,11262 0,0 19337,0 19337,11262 9669,11262 Z"/>
 <path fill="none" stroke="rgb(179,179,179)" stroke-linejoin="round" d="M 10124,10390 L 1298,10390 1298,2472 18951,2472 18951,10390 10124,10390 Z"/>
 <path fill="none" stroke="rgb(179,179,179)" stroke-linejoin="round" d="M 18951,10389 L 1298,10389"/>
 <path fill="none" stroke="rgb(179,179,179)" stroke-linejoin="round" d="M 18951,8805 L 1298,8805"/>
 <path fill="none" stroke="rgb(179,179,179)" stroke-linejoin="round" d="M 18951,7221 L 1298,7221"/>
 <path fill="none" stroke="rgb(179,179,179)" stroke-linejoin="round" d="M 18951,5637 L 1298,5637"/>
 <path fill="none" stroke="rgb(179,179,179)" stroke-linejoin="round" d="M 18951,4054 L 1298,4054"/>
 <path fill="none" stroke="rgb(179,179,179)" stroke-linejoin="round" d="M 18951,2470 L 1298,2470"/>
 <path fill="none" stroke="rgb(179,179,179)" stroke-linejoin="round" d="M 1298,10539 L 1298,10389"/>
 <path fill="none" stroke="rgb(179,179,179)" stroke-linejoin="round" d="M 1298,10539 L 1298,10389"/>
 <path fill="none" stroke="rgb(179,179,179)" stroke-linejoin="round" d="M 2278,10539 L 2278,10389"/>
 <path fill="none" stroke="rgb(179,179,179)" stroke-linejoin="round" d="M 2278,10539 L 2278,10389"/>
 <path fill="none" stroke="rgb(179,179,179)" stroke-linejoin="round" d="M 3259,10539 L 3259,10389"/>
 <path fill="none" stroke="rgb(179,179,179)" stroke-linejoin="round" d="M 3259,10539 L 3259,10389"/>
 <path fill="none" stroke="rgb(179,179,179)" stroke-linejoin="round" d="M 4240,10539 L 4240,10389"/>
 <path fill="none" stroke="rgb(179,179,179)" stroke-linejoin="round" d="M 4240,10539 L 4240,10389"/>
 <path fill="none" stroke="rgb(179,179,179)" stroke-linejoin="round" d="M 5221,10539 L 5221,10389"/>
 <path fill="none" stroke="rgb(179,179,179)" stroke-linejoin="round" d="M 5221,10539 L 5221,10389"/>
 <path fill="none" stroke="rgb(179,179,179)" stroke-linejoin="round" d="M 6201,10539 L 6201,10389"/>
 <path fill="none" stroke="rgb(179,179,179)" stroke-linejoin="round" d="M 6201,10539 L 6201,10389"/>
 <path fill="none" stroke="rgb(179,179,179)" stroke-linejoin="round" d="M 7182,10539 L 7182,10389"/>
 <path fill="none" stroke="rgb(179,179,179)" stroke-linejoin="round" d="M 7182,10539 L 7182,10389"/>
 <path fill="none" stroke="rgb(179,179,179)" stroke-linejoin="round" d="M 8163,10539 L 8163,10389"/>
 <path fill="none" stroke="rgb(179,179,179)" stroke-linejoin="round" d="M 8163,10539 L 8163,10389"/>
 <path fill="none" stroke="rgb(179,179,179)" stroke-linejoin="round" d="M 9144,10539 L 9144,10389"/>
 <path fill="none" stroke="rgb(179,179,179)" stroke-linejoin="round" d="M 9144,10539 L 9144,10389"/>
 <path fill="none" stroke="rgb(179,179,179)" stroke-linejoin="round" d="M 10124,10539 L 10124,10389"/>
 <path fill="none" stroke="rgb(179,179,179)" stroke-linejoin="round" d="M 10124,10539 L 10124,10389"/>
 <path fill="none" stroke="rgb(179,179,179)" stroke-linejoin="round" d="M 11104,10539 L 11104,10389"/>
 <path fill="none" stroke="rgb(179,179,179)" stroke-linejoin="round" d="M 11104,10539 L 11104,10389"/>
 <path fill="none" stroke="rgb(179,179,179)" stroke-linejoin="round" d="M 12085,10539 L 12085,10389"/>
 <path fill="none" stroke="rgb(179,179,179)" stroke-linejoin="round" d="M 12085,10539 L 12085,10389"/>
 <path fill="none" stroke="rgb(179,179,179)" stroke-linejoin="round" d="M 13066,10539 L 13066,10389"/>
 <path fill="none" stroke="rgb(179,179,179)" stroke-linejoin="round" d="M 13066,10539 L 13066,10389"/>
 <path fill="none" stroke="rgb(179,179,179)" stroke-linejoin="round" d="M 14047,10539 L 14047,10389"/>
 <path fill="none" stroke="rgb(179,179,179)" stroke-linejoin="round" d="M 14047,10539 L 14047,10389"/>
 <path fill="none" stroke="rgb(179,179,179)" stroke-linejoin="round" d="M 15027,10539 L 15027,10389"/>
 <path fill="none" stroke="rgb(179,179,179)" stroke-linejoin="round" d="M 15027,10539 L 15027,10389"/>
 <path fill="none" stroke="rgb(179,179,179)" stroke-linejoin="round" d="M 16008,10539 L 16008,10389"/>
 <path fill="none" stroke="rgb(179,179,179)" stroke-linejoin="round" d="M 16008,10539 L 16008,10389"/>
 <path fill="none" stroke="rgb(179,179,179)" stroke-linejoin="round" d="M 16989,10539 L 16989,10389"/>
 <path fill="none" stroke="rgb(179,179,179)" stroke-linejoin="round" d="M 16989,10539 L 16989,10389"/>
 <path fill="none" stroke="rgb(179,179,179)" stroke-linejoin="round" d="M 17970,10539 L 17970,10389"/>
 <path fill="none" stroke="rgb(179,179,179)" stroke-linejoin="round" d="M 17970,10539 L 17970,10389"/>
 <path fill="none" stroke="rgb(179,179,179)" stroke-linejoin="round" d="M 18951,10539 L 18951,10389"/>
 <path fill="none" stroke="rgb(179,179,179)" stroke-linejoin="round" d="M 18951,10539 L 18951,10389"/>
 <path fill="none" stroke="rgb(179,179,179)" stroke-linejoin="round" d="M 1298,10389 L 18951,10389"/>
 <path fill="none" stroke="rgb(179,179,179)" stroke-linejoin="round" d="M 1148,10389 L 1298,10389"/>
 <path fill="none" stroke="rgb(179,179,179)" stroke-linejoin="round" d="M 1148,10389 L 1298,10389"/>
 <path fill="none" stroke="rgb(179,179,179)" stroke-linejoin="round" d="M 1148,8805 L 1298,8805"/>
 <path fill="none" stroke="rgb(179,179,179)" stroke-linejoin="round" d="M 1148,8805 L 1298,8805"/>
 <path fill="none" stroke="rgb(179,179,179)" stroke-linejoin="round" d="M 1148,7221 L 1298,7221"/>
 <path fill="none" stroke="rgb(179,179,179)" stroke-linejoin="round" d="M 1148,7221 L 1298,7221"/>
 <path fill="none" stroke="rgb(179,179,179)" stroke-linejoin="round" d="M 1148,5637 L 1298,5637"/>
 <path fill="none" stroke="rgb(179,179,179)" stroke-linejoin="round" d="M 1148,5637 L 1298,5637"/>
 <path fill="none" stroke="rgb(179,179,179)" stroke-linejoin="round" d="M 1148,4054 L 1298,4054"/>
 <path fill="none" stroke="rgb(179,179,179)" stroke-linejoin="round" d="M 1148,4054 L 1298,4054"/>
 <path fill="none" stroke="rgb(179,179,179)" stroke-linejoin="round" d="M 1148,2470 L 1298,2470"/>
 <path fill="none" stroke="rgb(179,179,179)" stroke-linejoin="round" d="M 1148,2470 L 1298,2470"/>
 <path fill="none" stroke="rgb(179,179,179)" stroke-linejoin="round" d="M 1298,10389 L 1298,2470"/>
 <path fill="rgb(0,69,134)" stroke="none" d="M 17234,10389 L 17725,10389 17725,7854 17234,7854 17234,10389 Z"/>
 <path fill="rgb(0,69,134)" stroke="none" d="M 16253,10389 L 16744,10389 16744,5637 16253,5637 16253,10389 Z"/>
 <path fill="rgb(0,69,134)" stroke="none" d="M 15273,10389 L 15763,10389 15763,4054 15273,4054 15273,10389 Z"/>
 <path fill="rgb(0,69,134)" stroke="none" d="M 14292,10389 L 14782,10389 14782,4371 14292,4371 14292,10389 Z"/>
 <path fill="rgb(0,69,134)" stroke="none" d="M 13311,10389 L 13801,10389 13801,9438 13311,9438 13311,10389 Z"/>
 <path fill="rgb(0,69,134)" stroke="none" d="M 12330,10389 L 12821,10389 12821,8805 12330,8805 12330,10389 Z"/>
 <path fill="rgb(0,69,134)" stroke="none" d="M 11349,10389 L 11840,10389 11840,8171 11349,8171 11349,10389 Z"/>
 <path fill="rgb(0,69,134)" stroke="none" d="M 10369,10389 L 10859,10389 10859,5321 10369,5321 10369,10389 Z"/>
 <path fill="rgb(0,69,134)" stroke="none" d="M 9389,10389 L 9878,10389 9878,7221 9389,7221 9389,10389 Z"/>
 <path fill="rgb(0,69,134)" stroke="none" d="M 8408,10389 L 8899,10389 8899,8488 8408,8488 8408,10389 Z"/>
 <path fill="rgb(0,69,134)" stroke="none" d="M 6447,10389 L 6937,10389 6937,8805 6447,8805 6447,10389 Z"/>
 <path fill="rgb(0,69,134)" stroke="none" d="M 5466,10389 L 5956,10389 5956,7854 5466,7854 5466,10389 Z"/>
 <path fill="rgb(0,69,134)" stroke="none" d="M 3504,10389 L 3995,10389 3995,9755 3504,9755 3504,10389 Z"/>
 <path fill="rgb(0,69,134)" stroke="none" d="M 2523,10389 L 3014,10389 3014,9438 2523,9438 2523,10389 Z"/>
 <path fill="rgb(0,69,134)" stroke="none" d="M 1543,10389 L 2033,10389 2033,8805 1543,8805 1543,10389 Z"/>
 <text class="TextShape"><tspan class="TextParagraph" font-family="Liberation Sans" font-size="353px" font-weight="400"><tspan class="TextPosition" x="1550" y="10957"><tspan fill="rgb(0,0,0)" stroke="none">1-2</tspan></tspan></tspan></text>
 <text class="TextShape"><tspan class="TextParagraph" font-family="Liberation Sans" font-size="353px" font-weight="400"><tspan class="TextPosition" x="2531" y="10957"><tspan fill="rgb(0,0,0)" stroke="none">1-3</tspan></tspan></tspan></text>
 <text class="TextShape"><tspan class="TextParagraph" font-family="Liberation Sans" font-size="353px" font-weight="400"><tspan class="TextPosition" x="3511" y="10957"><tspan fill="rgb(0,0,0)" stroke="none">1-4</tspan></tspan></tspan></text>
 <text class="TextShape"><tspan class="TextParagraph" font-family="Liberation Sans" font-size="353px" font-weight="400"><tspan class="TextPosition" x="4492" y="10957"><tspan fill="rgb(0,0,0)" stroke="none">2-1</tspan></tspan></tspan></text>
 <text class="TextShape"><tspan class="TextParagraph" font-family="Liberation Sans" font-size="353px" font-weight="400"><tspan class="TextPosition" x="5473" y="10957"><tspan fill="rgb(0,0,0)" stroke="none">2-2</tspan></tspan></tspan></text>
 <text class="TextShape"><tspan class="TextParagraph" font-family="Liberation Sans" font-size="353px" font-weight="400"><tspan class="TextPosition" x="6454" y="10957"><tspan fill="rgb(0,0,0)" stroke="none">2-3</tspan></tspan></tspan></text>
 <text class="TextShape"><tspan class="TextParagraph" font-family="Liberation Sans" font-size="353px" font-weight="400"><tspan class="TextPosition" x="7435" y="10957"><tspan fill="rgb(0,0,0)" stroke="none">2-4</tspan></tspan></tspan></text>
 <text class="TextShape"><tspan class="TextParagraph" font-family="Liberation Sans" font-size="353px" font-weight="400"><tspan class="TextPosition" x="8415" y="10957"><tspan fill="rgb(0,0,0)" stroke="none">2-5</tspan></tspan></tspan></text>
 <text class="TextShape"><tspan class="TextParagraph" font-family="Liberation Sans" font-size="353px" font-weight="400"><tspan class="TextPosition" x="9396" y="10957"><tspan fill="rgb(0,0,0)" stroke="none">3-1</tspan></tspan></tspan></text>
 <text class="TextShape"><tspan class="TextParagraph" font-family="Liberation Sans" font-size="353px" font-weight="400"><tspan class="TextPosition" x="10377" y="10957"><tspan fill="rgb(0,0,0)" stroke="none">3-2</tspan></tspan></tspan></text>
 <text class="TextShape"><tspan class="TextParagraph" font-family="Liberation Sans" font-size="353px" font-weight="400"><tspan class="TextPosition" x="11358" y="10957"><tspan fill="rgb(0,0,0)" stroke="none">3-3</tspan></tspan></tspan></text>
 <text class="TextShape"><tspan class="TextParagraph" font-family="Liberation Sans" font-size="353px" font-weight="400"><tspan class="TextPosition" x="12338" y="10957"><tspan fill="rgb(0,0,0)" stroke="none">4-1</tspan></tspan></tspan></text>
 <text class="TextShape"><tspan class="TextParagraph" font-family="Liberation Sans" font-size="353px" font-weight="400"><tspan class="TextPosition" x="13319" y="10957"><tspan fill="rgb(0,0,0)" stroke="none">4-2</tspan></tspan></tspan></text>
 <text class="TextShape"><tspan class="TextParagraph" font-family="Liberation Sans" font-size="353px" font-weight="400"><tspan class="TextPosition" x="14300" y="10957"><tspan fill="rgb(0,0,0)" stroke="none">4-3</tspan></tspan></tspan></text>
 <text class="TextShape"><tspan class="TextParagraph" font-family="Liberation Sans" font-size="353px" font-weight="400"><tspan class="TextPosition" x="15281" y="10957"><tspan fill="rgb(0,0,0)" stroke="none">5-1</tspan></tspan></tspan></text>
 <text class="TextShape"><tspan class="TextParagraph" font-family="Liberation Sans" font-size="353px" font-weight="400"><tspan class="TextPosition" x="16262" y="10957"><tspan fill="rgb(0,0,0)" stroke="none">5-2</tspan></tspan></tspan></text>
 <text class="TextShape"><tspan class="TextParagraph" font-family="Liberation Sans" font-size="353px" font-weight="400"><tspan class="TextPosition" x="17242" y="10957"><tspan fill="rgb(0,0,0)" stroke="none">5-3</tspan></tspan></tspan></text>
 <text class="TextShape"><tspan class="TextParagraph" font-family="Liberation Sans" font-size="353px" font-weight="400"><tspan class="TextPosition" x="18223" y="10957"><tspan fill="rgb(0,0,0)" stroke="none">5-4</tspan></tspan></tspan></text>
 <text class="TextShape"><tspan class="TextParagraph" font-family="Liberation Sans" font-size="353px" font-weight="400"><tspan class="TextPosition" x="863" y="10510"><tspan fill="rgb(0,0,0)" stroke="none">0</tspan></tspan></tspan></text>
 <text class="TextShape"><tspan class="TextParagraph" font-family="Liberation Sans" font-size="353px" font-weight="400"><tspan class="TextPosition" x="387" y="8926"><tspan fill="rgb(0,0,0)" stroke="none">0.05</tspan></tspan></tspan></text>
 <text class="TextShape"><tspan class="TextParagraph" font-family="Liberation Sans" font-size="353px" font-weight="400"><tspan class="TextPosition" x="572" y="7342"><tspan fill="rgb(0,0,0)" stroke="none">0.1</tspan></tspan></tspan></text>
 <text class="TextShape"><tspan class="TextParagraph" font-family="Liberation Sans" font-size="353px" font-weight="400"><tspan class="TextPosition" x="387" y="5758"><tspan fill="rgb(0,0,0)" stroke="none">0.15</tspan></tspan></tspan></text>
 <text class="TextShape"><tspan class="TextParagraph" font-family="Liberation Sans" font-size="353px" font-weight="400"><tspan class="TextPosition" x="572" y="4174"><tspan fill="rgb(0,0,0)" stroke="none">0.2</tspan></tspan></tspan></text>
 <text class="TextShape"><tspan class="TextParagraph" font-family="Liberation Sans" font-size="353px" font-weight="400"><tspan class="TextPosition" x="387" y="2590"><tspan fill="rgb(0,0,0)" stroke="none">0.25</tspan></tspan></tspan></text>
 <text class="TextShape"><tspan class="TextParagraph" font-family="Liberation Sans" font-size="459px" font-weight="400"><tspan class="TextPosition" x="4747" y="896"><tspan fill="rgb(0,0,0)" stroke="none">Sections of A Portrait of the Artist as a Young Man</tspan></tspan></tspan></text>
 <text class="TextShape"><tspan class="TextParagraph" font-family="Liberation Sans" font-size="388px" font-weight="400"><tspan class="TextPosition" x="7116" y="1851"><tspan fill="rgb(0,0,0)" stroke="none">Proportions of Hellenic Words</tspan></tspan></tspan></text>
</svg>