<?xml version="1.0" encoding="UTF-8"?>
<!DOCTYPE svg PUBLIC "-//W3C//DTD SVG 1.1//EN" "http://www.w3.org/Graphics/SVG/1.1/DTD/svg11.dtd">
<svg width="190mm" height="111mm" viewBox="0 0 19000 11100" version="1.1" baseProfile="tiny" xmlns="http://www.w3.org/2000/svg" stroke-width="28.222" stroke-linejoin="round" xml:space="preserve">
 <path fill="rgb(255,255,255)" stroke="none" d="M 9489,11076 L 0,11076 0,0 18978,0 18978,11076 9489,11076 Z"/>
 <path fill="none" stroke="rgb(179,179,179)" stroke-linejoin="round" d="M 9945,10208 L 1291,10208 1291,2460 18599,2460 18599,10208 9945,10208 Z"/>
 <path fill="none" stroke="rgb(179,179,179)" stroke-linejoin="round" d="M 18599,10207 L 1291,10207"/>
 <path fill="none" stroke="rgb(179,179,179)" stroke-linejoin="round" d="M 18599,9100 L 1291,9100"/>
 <path fill="none" stroke="rgb(179,179,179)" stroke-linejoin="round" d="M 18599,7993 L 1291,7993"/>
 <path fill="none" stroke="rgb(179,179,179)" stroke-linejoin="round" d="M 18599,6886 L 1291,6886"/>
 <path fill="none" stroke="rgb(179,179,179)" stroke-linejoin="round" d="M 18599,5779 L 1291,5779"/>
 <path fill="none" stroke="rgb(179,179,179)" stroke-linejoin="round" d="M 18599,4673 L 1291,4673"/>
 <path fill="none" stroke="rgb(179,179,179)" stroke-linejoin="round" d="M 18599,3565 L 1291,3565"/>
 <path fill="none" stroke="rgb(179,179,179)" stroke-linejoin="round" d="M 18599,2458 L 1291,2458"/>
 <path fill="none" stroke="rgb(179,179,179)" stroke-linejoin="round" d="M 1291,10357 L 1291,10207"/>
 <path fill="none" stroke="rgb(179,179,179)" stroke-linejoin="round" d="M 1291,10357 L 1291,10207"/>
 <path fill="none" stroke="rgb(179,179,179)" stroke-linejoin="round" d="M 4752,10357 L 4752,10207"/>
 <path fill="none" stroke="rgb(179,179,179)" stroke-linejoin="round" d="M 4752,10357 L 4752,10207"/>
 <path fill="none" stroke="rgb(179,179,179)" stroke-linejoin="round" d="M 8214,10357 L 8214,10207"/>
 <path fill="none" stroke="rgb(179,179,179)" stroke-linejoin="round" d="M 8214,10357 L 8214,10207"/>
 <path fill="none" stroke="rgb(179,179,179)" stroke-linejoin="round" d="M 11675,10357 L 11675,10207"/>
 <path fill="none" stroke="rgb(179,179,179)" stroke-linejoin="round" d="M 11675,10357 L 11675,10207"/>
 <path fill="none" stroke="rgb(179,179,179)" stroke-linejoin="round" d="M 15137,10357 L 15137,10207"/>
 <path fill="none" stroke="rgb(179,179,179)" stroke-linejoin="round" d="M 15137,10357 L 15137,10207"/>
 <path fill="none" stroke="rgb(179,179,179)" stroke-linejoin="round" d="M 18599,10357 L 18599,10207"/>
 <path fill="none" stroke="rgb(179,179,179)" stroke-linejoin="round" d="M 18599,10357 L 18599,10207"/>
 <path fill="none" stroke="rgb(179,179,179)" stroke-linejoin="round" d="M 1291,10207 L 18599,10207"/>
 <path fill="none" stroke="rgb(179,179,179)" stroke-linejoin="round" d="M 1141,10207 L 1291,10207"/>
 <path fill="none" stroke="rgb(179,179,179)" stroke-linejoin="round" d="M 1141,10207 L 1291,10207"/>
 <path fill="none" stroke="rgb(179,179,179)" stroke-linejoin="round" d="M 1141,9100 L 1291,9100"/>
 <path fill="none" stroke="rgb(179,179,179)" stroke-linejoin="round" d="M 1141,9100 L 1291,9100"/>
 <path fill="none" stroke="rgb(179,179,179)" stroke-linejoin="round" d="M 1141,7993 L 1291,7993"/>
 <path fill="none" stroke="rgb(179,179,179)" stroke-linejoin="round" d="M 1141,7993 L 1291,7993"/>
 <path fill="none" stroke="rgb(179,179,179)" stroke-linejoin="round" d="M 1141,6886 L 1291,6886"/>
 <path fill="none" stroke="rgb(179,179,179)" stroke-linejoin="round" d="M 1141,6886 L 1291,6886"/>
 <path fill="none" stroke="rgb(179,179,179)" stroke-linejoin="round" d="M 1141,5779 L 1291,5779"/>
 <path fill="none" stroke="rgb(179,179,179)" stroke-linejoin="round" d="M 1141,5779 L 1291,5779"/>
 <path fill="none" stroke="rgb(179,179,179)" stroke-linejoin="round" d="M 1141,4673 L 1291,4673"/>
 <path fill="none" stroke="rgb(179,179,179)" stroke-linejoin="round" d="M 1141,4673 L 1291,4673"/>
 <path fill="none" stroke="rgb(179,179,179)" stroke-linejoin="round" d="M 1141,3565 L 1291,3565"/>
 <path fill="none" stroke="rgb(179,179,179)" stroke-linejoin="round" d="M 1141,3565 L 1291,3565"/>
 <path fill="none" stroke="rgb(179,179,179)" stroke-linejoin="round" d="M 1141,2458 L 1291,2458"/>
 <path fill="none" stroke="rgb(179,179,179)" stroke-linejoin="round" d="M 1141,2458 L 1291,2458"/>
 <path fill="none" stroke="rgb(179,179,179)" stroke-linejoin="round" d="M 1291,10207 L 1291,2458"/>
 <path fill="rgb(0,69,134)" stroke="none" d="M 16002,10207 L 17733,10207 17733,3565 16002,3565 16002,10207 Z"/>
 <path fill="rgb(0,69,134)" stroke="none" d="M 12540,10207 L 14271,10207 14271,6221 12540,6221 12540,10207 Z"/>
 <path fill="rgb(0,69,134)" stroke="none" d="M 9080,10207 L 10809,10207 10809,4230 9080,4230 9080,10207 Z"/>
 <path fill="rgb(0,69,134)" stroke="none" d="M 5618,10207 L 7349,10207 7349,8214 5618,8214 5618,10207 Z"/>
 <path fill="rgb(0,69,134)" stroke="none" d="M 2156,10207 L 3887,10207 3887,8657 2156,8657 2156,10207 Z"/>
 <text class="TextShape"><tspan class="TextParagraph" font-family="Liberation Sans" font-size="353px" font-weight="400"><tspan class="TextPosition" x="2611" y="10775"><tspan fill="rgb(0,0,0)" stroke="none">Ch. 1</tspan></tspan></tspan></text>
 <text class="TextShape"><tspan class="TextParagraph" font-family="Liberation Sans" font-size="353px" font-weight="400"><tspan class="TextPosition" x="6073" y="10775"><tspan fill="rgb(0,0,0)" stroke="none">Ch. 2</tspan></tspan></tspan></text>
 <text class="TextShape"><tspan class="TextParagraph" font-family="Liberation Sans" font-size="353px" font-weight="400"><tspan class="TextPosition" x="9535" y="10775"><tspan fill="rgb(0,0,0)" stroke="none">Ch. 3</tspan></tspan></tspan></text>
 <text class="TextShape"><tspan class="TextParagraph" font-family="Liberation Sans" font-size="353px" font-weight="400"><tspan class="TextPosition" x="12997" y="10775"><tspan fill="rgb(0,0,0)" stroke="none">Ch. 4</tspan></tspan></tspan></text>
 <text class="TextShape"><tspan class="TextParagraph" font-family="Liberation Sans" font-size="353px" font-weight="400"><tspan class="TextPosition" x="16459" y="10775"><tspan fill="rgb(0,0,0)" stroke="none">Ch. 5</tspan></tspan></tspan></text>
 <text class="TextShape"><tspan class="TextParagraph" font-family="Liberation Sans" font-size="353px" font-weight="400"><tspan class="TextPosition" x="856" y="10328"><tspan fill="rgb(0,0,0)" stroke="none">0</tspan></tspan></tspan></text>
 <text class="TextShape"><tspan class="TextParagraph" font-family="Liberation Sans" font-size="353px" font-weight="400"><tspan class="TextPosition" x="380" y="9221"><tspan fill="rgb(0,0,0)" stroke="none">0.05</tspan></tspan></tspan></text>
 <text class="TextShape"><tspan class="TextParagraph" font-family="Liberation Sans" font-size="353px" font-weight="400"><tspan class="TextPosition" x="565" y="8114"><tspan fill="rgb(0,0,0)" stroke="none">0.1</tspan></tspan></tspan></text>
 <text class="TextShape"><tspan class="TextParagraph" font-family="Liberation Sans" font-size="353px" font-weight="400"><tspan class="TextPosition" x="380" y="7007"><tspan fill="rgb(0,0,0)" stroke="none">0.15</tspan></tspan></tspan></text>
 <text class="TextShape"><tspan class="TextParagraph" font-family="Liberation Sans" font-size="353px" font-weight="400"><tspan class="TextPosition" x="565" y="5900"><tspan fill="rgb(0,0,0)" stroke="none">0.2</tspan></tspan></tspan></text>
 <text class="TextShape"><tspan class="TextParagraph" font-family="Liberation Sans" font-size="353px" font-weight="400"><tspan class="TextPosition" x="380" y="4793"><tspan fill="rgb(0,0,0)" stroke="none">0.25</tspan></tspan></tspan></text>
 <text class="TextShape"><tspan class="TextParagraph" font-family="Liberation Sans" font-size="353px" font-weight="400"><tspan class="TextPosition" x="565" y="3685"><tspan fill="rgb(0,0,0)" stroke="none">0.3</tspan></tspan></tspan></text>
 <text class="TextShape"><tspan class="TextParagraph" font-family="Liberation Sans" font-size="353px" font-weight="400"><tspan class="TextPosition" x="380" y="2578"><tspan fill="rgb(0,0,0)" stroke="none">0.35</tspan></tspan></tspan></text>
 <text class="TextShape"><tspan class="TextParagraph" font-family="Liberation Sans" font-size="459px" font-weight="400"><tspan class="TextPosition" x="4528" y="892"><tspan fill="rgb(0,0,0)" stroke="none">Chapters of A Portrait of the Artist as a Young Man</tspan></tspan></tspan></text>
 <text class="TextShape"><tspan class="TextParagraph" font-family="Liberation Sans" font-size="388px" font-weight="400"><tspan class="TextPosition" x="6936" y="1843"><tspan fill="rgb(0,0,0)" stroke="none">Proportions of Hellenic Words</tspan></tspan></tspan></text>
</svg>