<?xml version="1.0" encoding="UTF-8"?>
<!DOCTYPE svg PUBLIC "-//W3C//DTD SVG 1.1//EN" "http://www.w3.org/Graphics/SVG/1.1/DTD/svg11.dtd">
<svg width="197mm" height="116mm" viewBox="0 0 19700 11600" version="1.1" baseProfile="tiny" xmlns="http://www.w3.org/2000/svg" stroke-width="28.222" stroke-linejoin="round" xml:space="preserve">
 <path fill="rgb(255,255,255)" stroke="none" d="M 9861,11554 L 0,11554 0,0 19722,0 19722,11554 9861,11554 Z"/>
 <path fill="none" stroke="rgb(179,179,179)" stroke-linejoin="round" d="M 10079,10676 L 830,10676 830,2490 19328,2490 19328,10676 10079,10676 Z"/>
 <path fill="none" stroke="rgb(179,179,179)" stroke-linejoin="round" d="M 19328,10675 L 830,10675"/>
 <path fill="none" stroke="rgb(179,179,179)" stroke-linejoin="round" d="M 19328,9765 L 830,9765"/>
 <path fill="none" stroke="rgb(179,179,179)" stroke-linejoin="round" d="M 19328,8855 L 830,8855"/>
 <path fill="none" stroke="rgb(179,179,179)" stroke-linejoin="round" d="M 19328,7946 L 830,7946"/>
 <path fill="none" stroke="rgb(179,179,179)" stroke-linejoin="round" d="M 19328,7036 L 830,7036"/>
 <path fill="none" stroke="rgb(179,179,179)" stroke-linejoin="round" d="M 19328,6126 L 830,6126"/>
 <path fill="none" stroke="rgb(179,179,179)" stroke-linejoin="round" d="M 19328,5218 L 830,5218"/>
 <path fill="none" stroke="rgb(179,179,179)" stroke-linejoin="round" d="M 19328,4308 L 830,4308"/>
 <path fill="none" stroke="rgb(179,179,179)" stroke-linejoin="round" d="M 19328,3398 L 830,3398"/>
 <path fill="none" stroke="rgb(179,179,179)" stroke-linejoin="round" d="M 19328,2489 L 830,2489"/>
 <path fill="none" stroke="rgb(179,179,179)" stroke-linejoin="round" d="M 830,10825 L 830,10675"/>
 <path fill="none" stroke="rgb(179,179,179)" stroke-linejoin="round" d="M 830,10825 L 830,10675"/>
 <path fill="none" stroke="rgb(179,179,179)" stroke-linejoin="round" d="M 1803,10825 L 1803,10675"/>
 <path fill="none" stroke="rgb(179,179,179)" stroke-linejoin="round" d="M 1803,10825 L 1803,10675"/>
 <path fill="none" stroke="rgb(179,179,179)" stroke-linejoin="round" d="M 2777,10825 L 2777,10675"/>
 <path fill="none" stroke="rgb(179,179,179)" stroke-linejoin="round" d="M 2777,10825 L 2777,10675"/>
 <path fill="none" stroke="rgb(179,179,179)" stroke-linejoin="round" d="M 3750,10825 L 3750,10675"/>
 <path fill="none" stroke="rgb(179,179,179)" stroke-linejoin="round" d="M 3750,10825 L 3750,10675"/>
 <path fill="none" stroke="rgb(179,179,179)" stroke-linejoin="round" d="M 4724,10825 L 4724,10675"/>
 <path fill="none" stroke="rgb(179,179,179)" stroke-linejoin="round" d="M 4724,10825 L 4724,10675"/>
 <path fill="none" stroke="rgb(179,179,179)" stroke-linejoin="round" d="M 5698,10825 L 5698,10675"/>
 <path fill="none" stroke="rgb(179,179,179)" stroke-linejoin="round" d="M 5698,10825 L 5698,10675"/>
 <path fill="none" stroke="rgb(179,179,179)" stroke-linejoin="round" d="M 6671,10825 L 6671,10675"/>
 <path fill="none" stroke="rgb(179,179,179)" stroke-linejoin="round" d="M 6671,10825 L 6671,10675"/>
 <path fill="none" stroke="rgb(179,179,179)" stroke-linejoin="round" d="M 7645,10825 L 7645,10675"/>
 <path fill="none" stroke="rgb(179,179,179)" stroke-linejoin="round" d="M 7645,10825 L 7645,10675"/>
 <path fill="none" stroke="rgb(179,179,179)" stroke-linejoin="round" d="M 8619,10825 L 8619,10675"/>
 <path fill="none" stroke="rgb(179,179,179)" stroke-linejoin="round" d="M 8619,10825 L 8619,10675"/>
 <path fill="none" stroke="rgb(179,179,179)" stroke-linejoin="round" d="M 9592,10825 L 9592,10675"/>
 <path fill="none" stroke="rgb(179,179,179)" stroke-linejoin="round" d="M 9592,10825 L 9592,10675"/>
 <path fill="none" stroke="rgb(179,179,179)" stroke-linejoin="round" d="M 10565,10825 L 10565,10675"/>
 <path fill="none" stroke="rgb(179,179,179)" stroke-linejoin="round" d="M 10565,10825 L 10565,10675"/>
 <path fill="none" stroke="rgb(179,179,179)" stroke-linejoin="round" d="M 11538,10825 L 11538,10675"/>
 <path fill="none" stroke="rgb(179,179,179)" stroke-linejoin="round" d="M 11538,10825 L 11538,10675"/>
 <path fill="none" stroke="rgb(179,179,179)" stroke-linejoin="round" d="M 12512,10825 L 12512,10675"/>
 <path fill="none" stroke="rgb(179,179,179)" stroke-linejoin="round" d="M 12512,10825 L 12512,10675"/>
 <path fill="none" stroke="rgb(179,179,179)" stroke-linejoin="round" d="M 13486,10825 L 13486,10675"/>
 <path fill="none" stroke="rgb(179,179,179)" stroke-linejoin="round" d="M 13486,10825 L 13486,10675"/>
 <path fill="none" stroke="rgb(179,179,179)" stroke-linejoin="round" d="M 14459,10825 L 14459,10675"/>
 <path fill="none" stroke="rgb(179,179,179)" stroke-linejoin="round" d="M 14459,10825 L 14459,10675"/>
 <path fill="none" stroke="rgb(179,179,179)" stroke-linejoin="round" d="M 15433,10825 L 15433,10675"/>
 <path fill="none" stroke="rgb(179,179,179)" stroke-linejoin="round" d="M 15433,10825 L 15433,10675"/>
 <path fill="none" stroke="rgb(179,179,179)" stroke-linejoin="round" d="M 16407,10825 L 16407,10675"/>
 <path fill="none" stroke="rgb(179,179,179)" stroke-linejoin="round" d="M 16407,10825 L 16407,10675"/>
 <path fill="none" stroke="rgb(179,179,179)" stroke-linejoin="round" d="M 17380,10825 L 17380,10675"/>
 <path fill="none" stroke="rgb(179,179,179)" stroke-linejoin="round" d="M 17380,10825 L 17380,10675"/>
 <path fill="none" stroke="rgb(179,179,179)" stroke-linejoin="round" d="M 18354,10825 L 18354,10675"/>
 <path fill="none" stroke="rgb(179,179,179)" stroke-linejoin="round" d="M 18354,10825 L 18354,10675"/>
 <path fill="none" stroke="rgb(179,179,179)" stroke-linejoin="round" d="M 19328,10825 L 19328,10675"/>
 <path fill="none" stroke="rgb(179,179,179)" stroke-linejoin="round" d="M 19328,10825 L 19328,10675"/>
 <path fill="none" stroke="rgb(179,179,179)" stroke-linejoin="round" d="M 830,10675 L 19328,10675"/>
 <path fill="none" stroke="rgb(179,179,179)" stroke-linejoin="round" d="M 680,10675 L 830,10675"/>
 <path fill="none" stroke="rgb(179,179,179)" stroke-linejoin="round" d="M 680,10675 L 830,10675"/>
 <path fill="none" stroke="rgb(179,179,179)" stroke-linejoin="round" d="M 680,9765 L 830,9765"/>
 <path fill="none" stroke="rgb(179,179,179)" stroke-linejoin="round" d="M 680,9765 L 830,9765"/>
 <path fill="none" stroke="rgb(179,179,179)" stroke-linejoin="round" d="M 680,8855 L 830,8855"/>
 <path fill="none" stroke="rgb(179,179,179)" stroke-linejoin="round" d="M 680,8855 L 830,8855"/>
 <path fill="none" stroke="rgb(179,179,179)" stroke-linejoin="round" d="M 680,7946 L 830,7946"/>
 <path fill="none" stroke="rgb(179,179,179)" stroke-linejoin="round" d="M 680,7946 L 830,7946"/>
 <path fill="none" stroke="rgb(179,179,179)" stroke-linejoin="round" d="M 680,7036 L 830,7036"/>
 <path fill="none" stroke="rgb(179,179,179)" stroke-linejoin="round" d="M 680,7036 L 830,7036"/>
 <path fill="none" stroke="rgb(179,179,179)" stroke-linejoin="round" d="M 680,6126 L 830,6126"/>
 <path fill="none" stroke="rgb(179,179,179)" stroke-linejoin="round" d="M 680,6126 L 830,6126"/>
 <path fill="none" stroke="rgb(179,179,179)" stroke-linejoin="round" d="M 680,5218 L 830,5218"/>
 <path fill="none" stroke="rgb(179,179,179)" stroke-linejoin="round" d="M 680,5218 L 830,5218"/>
 <path fill="none" stroke="rgb(179,179,179)" stroke-linejoin="round" d="M 680,4308 L 830,4308"/>
 <path fill="none" stroke="rgb(179,179,179)" stroke-linejoin="round" d="M 680,4308 L 830,4308"/>
 <path fill="none" stroke="rgb(179,179,179)" stroke-linejoin="round" d="M 680,3398 L 830,3398"/>
 <path fill="none" stroke="rgb(179,179,179)" stroke-linejoin="round" d="M 680,3398 L 830,3398"/>
 <path fill="none" stroke="rgb(179,179,179)" stroke-linejoin="round" d="M 680,2489 L 830,2489"/>
 <path fill="none" stroke="rgb(179,179,179)" stroke-linejoin="round" d="M 680,2489 L 830,2489"/>
 <path fill="none" stroke="rgb(179,179,179)" stroke-linejoin="round" d="M 830,10675 L 830,2489"/>
 <path fill="rgb(0,69,134)" stroke="none" d="M 18597,10675 L 19084,10675 19084,5826 18597,5826 18597,10675 Z"/>
 <path fill="rgb(0,69,134)" stroke="none" d="M 17624,10675 L 18110,10675 18110,5318 17624,5318 17624,10675 Z"/>
 <path fill="rgb(0,69,134)" stroke="none" d="M 16650,10675 L 17137,10675 17137,6108 16650,6108 16650,10675 Z"/>
 <path fill="rgb(0,69,134)" stroke="none" d="M 15676,10675 L 16163,10675 16163,4317 15676,4317 15676,10675 Z"/>
 <path fill="rgb(0,69,134)" stroke="none" d="M 14703,10675 L 15190,10675 15190,5700 14703,5700 14703,10675 Z"/>
 <path fill="rgb(0,69,134)" stroke="none" d="M 13729,10675 L 14216,10675 14216,5054 13729,5054 13729,10675 Z"/>
 <path fill="rgb(0,69,134)" stroke="none" d="M 12755,10675 L 13242,10675 13242,3162 12755,3162 12755,10675 Z"/>
 <path fill="rgb(0,69,134)" stroke="none" d="M 11782,10675 L 12269,10675 12269,6435 11782,6435 11782,10675 Z"/>
 <path fill="rgb(0,69,134)" stroke="none" d="M 10808,10675 L 11295,10675 11295,4517 10808,4517 10808,10675 Z"/>
 <path fill="rgb(0,69,134)" stroke="none" d="M 9836,10675 L 10321,10675 10321,4162 9836,4162 9836,10675 Z"/>
 <path fill="rgb(0,69,134)" stroke="none" d="M 8862,10675 L 9349,10675 9349,6344 8862,6344 8862,10675 Z"/>
 <path fill="rgb(0,69,134)" stroke="none" d="M 7888,10675 L 8375,10675 8375,5754 7888,5754 7888,10675 Z"/>
 <path fill="rgb(0,69,134)" stroke="none" d="M 6915,10675 L 7402,10675 7402,4644 6915,4644 6915,10675 Z"/>
 <path fill="rgb(0,69,134)" stroke="none" d="M 5941,10675 L 6428,10675 6428,6517 5941,6517 5941,10675 Z"/>
 <path fill="rgb(0,69,134)" stroke="none" d="M 4967,10675 L 5454,10675 5454,6399 4967,6399 4967,10675 Z"/>
 <path fill="rgb(0,69,134)" stroke="none" d="M 3994,10675 L 4481,10675 4481,7118 3994,7118 3994,10675 Z"/>
 <path fill="rgb(0,69,134)" stroke="none" d="M 3020,10675 L 3507,10675 3507,7427 3020,7427 3020,10675 Z"/>
 <path fill="rgb(0,69,134)" stroke="none" d="M 2047,10675 L 2533,10675 2533,7227 2047,7227 2047,10675 Z"/>
 <path fill="rgb(0,69,134)" stroke="none" d="M 1073,10675 L 1560,10675 1560,6426 1073,6426 1073,10675 Z"/>
 <text class="TextShape"><tspan class="TextParagraph" font-family="Liberation Sans" font-size="353px" font-weight="400"><tspan class="TextPosition" x="1078" y="11243"><tspan fill="rgb(0,0,0)" stroke="none">1-1</tspan></tspan></tspan></text>
 <text class="TextShape"><tspan class="TextParagraph" font-family="Liberation Sans" font-size="353px" font-weight="400"><tspan class="TextPosition" x="2052" y="11243"><tspan fill="rgb(0,0,0)" stroke="none">1-2</tspan></tspan></tspan></text>
 <text class="TextShape"><tspan class="TextParagraph" font-family="Liberation Sans" font-size="353px" font-weight="400"><tspan class="TextPosition" x="3026" y="11243"><tspan fill="rgb(0,0,0)" stroke="none">1-3</tspan></tspan></tspan></text>
 <text class="TextShape"><tspan class="TextParagraph" font-family="Liberation Sans" font-size="353px" font-weight="400"><tspan class="TextPosition" x="3999" y="11243"><tspan fill="rgb(0,0,0)" stroke="none">1-4</tspan></tspan></tspan></text>
 <text class="TextShape"><tspan class="TextParagraph" font-family="Liberation Sans" font-size="353px" font-weight="400"><tspan class="TextPosition" x="4973" y="11243"><tspan fill="rgb(0,0,0)" stroke="none">2-1</tspan></tspan></tspan></text>
 <text class="TextShape"><tspan class="TextParagraph" font-family="Liberation Sans" font-size="353px" font-weight="400"><tspan class="TextPosition" x="5946" y="11243"><tspan fill="rgb(0,0,0)" stroke="none">2-2</tspan></tspan></tspan></text>
 <text class="TextShape"><tspan class="TextParagraph" font-family="Liberation Sans" font-size="353px" font-weight="400"><tspan class="TextPosition" x="6920" y="11243"><tspan fill="rgb(0,0,0)" stroke="none">2-3</tspan></tspan></tspan></text>
 <text class="TextShape"><tspan class="TextParagraph" font-family="Liberation Sans" font-size="353px" font-weight="400"><tspan class="TextPosition" x="7894" y="11243"><tspan fill="rgb(0,0,0)" stroke="none">2-4</tspan></tspan></tspan></text>
 <text class="TextShape"><tspan class="TextParagraph" font-family="Liberation Sans" font-size="353px" font-weight="400"><tspan class="TextPosition" x="8867" y="11243"><tspan fill="rgb(0,0,0)" stroke="none">2-5</tspan></tspan></tspan></text>
 <text class="TextShape"><tspan class="TextParagraph" font-family="Liberation Sans" font-size="353px" font-weight="400"><tspan class="TextPosition" x="9841" y="11243"><tspan fill="rgb(0,0,0)" stroke="none">3-1</tspan></tspan></tspan></text>
 <text class="TextShape"><tspan class="TextParagraph" font-family="Liberation Sans" font-size="353px" font-weight="400"><tspan class="TextPosition" x="10815" y="11243"><tspan fill="rgb(0,0,0)" stroke="none">3-2</tspan></tspan></tspan></text>
 <text class="TextShape"><tspan class="TextParagraph" font-family="Liberation Sans" font-size="353px" font-weight="400"><tspan class="TextPosition" x="11788" y="11243"><tspan fill="rgb(0,0,0)" stroke="none">3-3</tspan></tspan></tspan></text>
 <text class="TextShape"><tspan class="TextParagraph" font-family="Liberation Sans" font-size="353px" font-weight="400"><tspan class="TextPosition" x="12762" y="11243"><tspan fill="rgb(0,0,0)" stroke="none">4-1</tspan></tspan></tspan></text>
 <text class="TextShape"><tspan class="TextParagraph" font-family="Liberation Sans" font-size="353px" font-weight="400"><tspan class="TextPosition" x="13736" y="11243"><tspan fill="rgb(0,0,0)" stroke="none">4-2</tspan></tspan></tspan></text>
 <text class="TextShape"><tspan class="TextParagraph" font-family="Liberation Sans" font-size="353px" font-weight="400"><tspan class="TextPosition" x="14709" y="11243"><tspan fill="rgb(0,0,0)" stroke="none">4-3</tspan></tspan></tspan></text>
 <text class="TextShape"><tspan class="TextParagraph" font-family="Liberation Sans" font-size="353px" font-weight="400"><tspan class="TextPosition" x="15683" y="11243"><tspan fill="rgb(0,0,0)" stroke="none">5-1</tspan></tspan></tspan></text>
 <text class="TextShape"><tspan class="TextParagraph" font-family="Liberation Sans" font-size="353px" font-weight="400"><tspan class="TextPosition" x="16656" y="11243"><tspan fill="rgb(0,0,0)" stroke="none">5-2</tspan></tspan></tspan></text>
 <text class="TextShape"><tspan class="TextParagraph" font-family="Liberation Sans" font-size="353px" font-weight="400"><tspan class="TextPosition" x="17630" y="11243"><tspan fill="rgb(0,0,0)" stroke="none">5-3</tspan></tspan></tspan></text>
 <text class="TextShape"><tspan class="TextParagraph" font-family="Liberation Sans" font-size="353px" font-weight="400"><tspan class="TextPosition" x="18604" y="11243"><tspan fill="rgb(0,0,0)" stroke="none">5-4</tspan></tspan></tspan></text>
 <text class="TextShape"><tspan class="TextParagraph" font-family="Liberation Sans" font-size="353px" font-weight="400"><tspan class="TextPosition" x="395" y="10796"><tspan fill="rgb(0,0,0)" stroke="none">0</tspan></tspan></tspan></text>
 <text class="TextShape"><tspan class="TextParagraph" font-family="Liberation Sans" font-size="353px" font-weight="400"><tspan class="TextPosition" x="395" y="9886"><tspan fill="rgb(0,0,0)" stroke="none">1</tspan></tspan></tspan></text>
 <text class="TextShape"><tspan class="TextParagraph" font-family="Liberation Sans" font-size="353px" font-weight="400"><tspan class="TextPosition" x="395" y="8976"><tspan fill="rgb(0,0,0)" stroke="none">2</tspan></tspan></tspan></text>
 <text class="TextShape"><tspan class="TextParagraph" font-family="Liberation Sans" font-size="353px" font-weight="400"><tspan class="TextPosition" x="395" y="8067"><tspan fill="rgb(0,0,0)" stroke="none">3</tspan></tspan></tspan></text>
 <text class="TextShape"><tspan class="TextParagraph" font-family="Liberation Sans" font-size="353px" font-weight="400"><tspan class="TextPosition" x="395" y="7157"><tspan fill="rgb(0,0,0)" stroke="none">4</tspan></tspan></tspan></text>
 <text class="TextShape"><tspan class="TextParagraph" font-family="Liberation Sans" font-size="353px" font-weight="400"><tspan class="TextPosition" x="395" y="6247"><tspan fill="rgb(0,0,0)" stroke="none">5</tspan></tspan></tspan></text>
 <text class="TextShape"><tspan class="TextParagraph" font-family="Liberation Sans" font-size="353px" font-weight="400"><tspan class="TextPosition" x="395" y="5338"><tspan fill="rgb(0,0,0)" stroke="none">6</tspan></tspan></tspan></text>
 <text class="TextShape"><tspan class="TextParagraph" font-family="Liberation Sans" font-size="353px" font-weight="400"><tspan class="TextPosition" x="395" y="4428"><tspan fill="rgb(0,0,0)" stroke="none">7</tspan></tspan></tspan></text>
 <text class="TextShape"><tspan class="TextParagraph" font-family="Liberation Sans" font-size="353px" font-weight="400"><tspan class="TextPosition" x="395" y="3518"><tspan fill="rgb(0,0,0)" stroke="none">8</tspan></tspan></tspan></text>
 <text class="TextShape"><tspan class="TextParagraph" font-family="Liberation Sans" font-size="353px" font-weight="400"><tspan class="TextPosition" x="395" y="2609"><tspan fill="rgb(0,0,0)" stroke="none">9</tspan></tspan></tspan></text>
 <text class="TextShape"><tspan class="TextParagraph" font-family="Liberation Sans" font-size="459px" font-weight="400"><tspan class="TextPosition" x="4939" y="902"><tspan fill="rgb(0,0,0)" stroke="none">Sections of A Portrait of the Artist as a Young Man</tspan></tspan></tspan></text>
 <text class="TextShape"><tspan class="TextParagraph" font-family="Liberation Sans" font-size="388px" font-weight="400"><tspan class="TextPosition" x="7321" y="1863"><tspan fill="rgb(0,0,0)" stroke="none">Proportions of Latinate Words</tspan></tspan></tspan></text>
</svg>